<svg width="30.041748" height="30.003906" viewBox="0 0 30.0417 30.0039" fill="none" xmlns="http://www.w3.org/2000/svg" xmlns:xlink="http://www.w3.org/1999/xlink">
	<desc>
			Created with Pixso.
	</desc>
	<defs/>
	<path d="M9.92731 2.65332C11.5115 3.27466 13.043 4.09497 14.4864 5.09717C14.6507 5.2085 14.8384 5.26709 15.0262 5.26709C15.2139 5.26709 15.4017 5.2085 15.566 5.09717C17.0094 4.09497 18.5408 3.2688 20.1251 2.64746C20.483 2.50684 20.7235 2.15527 20.7177 1.76831C20.7177 1.38159 20.4771 1.03589 20.1133 0.901123C16.9449 -0.300293 13.1075 -0.300293 9.94495 0.901123C9.58704 1.03589 9.34058 1.38745 9.34058 1.76831C9.34058 2.14941 9.56354 2.5127 9.92731 2.65332Z" fill="#FFB548" fill-opacity="1.000000" fill-rule="nonzero"/>
	<path d="M23.5347 2.65869C23.2354 2.45337 22.854 2.43579 22.5313 2.61768C20.7769 3.62549 19.0812 4.78003 17.4794 6.05176C17.2681 6.22168 17.139 6.47388 17.1273 6.74341C17.1156 7.01294 17.2212 7.27661 17.4148 7.46411C20.7358 10.623 25.336 20.3105 26.3922 24.7644C24.1038 20.8965 18.9991 11.7952 15.6605 8.68311C15.3025 8.34912 14.7393 8.34912 14.3813 8.68311C11.0368 11.7952 5.94965 20.9023 3.66132 24.7761C4.71747 20.3223 9.30591 10.623 12.6269 7.46411C12.8264 7.27661 12.932 7.01294 12.9203 6.74341C12.9086 6.47388 12.7795 6.22168 12.5682 6.05176C10.9664 4.78003 9.26483 3.62549 7.5163 2.61768C7.20532 2.43579 6.81219 2.45337 6.51294 2.65869C2.435 5.46582 0 10.0779 0 15.0007C0 18.5991 1.29675 22.0686 3.66132 24.7761C6.4895 28.0933 10.6261 30.0037 15.0209 30.0037C19.4156 30.0037 23.5581 28.0991 26.3922 24.7703C28.745 22.0745 30.0417 18.605 30.0417 15.0007C30.0417 10.0779 27.6068 5.46582 23.5347 2.65869Z" fill="#FFB548" fill-opacity="1.000000" fill-rule="nonzero"/>
</svg>
